<svg xmlns="http://www.w3.org/2000/svg" width="512" height="512" viewBox="0 0 512 512">
  <defs>
    <linearGradient id="blue" x1="0" y1="0" x2="1" y2="1">
      <stop stop-color="#26b8ff"/>
      <stop offset="1" stop-color="#0769dd"/>
    </linearGradient>
  </defs>
  <rect width="512" height="512" fill="url(#blue)"/>
  <rect x="92" y="143" width="328" height="226" rx="27" fill="#eaf8ff"/>
  <path d="M93 169c0-15 12-27 27-27h272c15 0 27 12 27 27v14L271 291a26 26 0 0 1-30 0L93 183z" fill="#ffffff"/>
  <path d="M93 183l145 106c11 8 25 8 36 0l145-106v-14L271 276a26 26 0 0 1-30 0L93 169z" fill="#c8ecff"/>
  <path d="M93 343l123-98 27 20-150 105zM419 343l-123-98-27 20 150 105z" fill="#d9f3ff"/>
</svg>
